<?xml version="1.0" standalone="no"?>
<!DOCTYPE svg PUBLIC "-//W3C//DTD SVG 20010904//EN"
 "http://www.w3.org/TR/2001/REC-SVG-20010904/DTD/svg10.dtd">
<svg version="1.0" xmlns="http://www.w3.org/2000/svg"
 width="512.000000pt" height="512.000000pt" viewBox="0 0 512.000000 512.000000"
 preserveAspectRatio="xMidYMid meet">
<metadata>
Created by potrace 1.14, written by Peter Selinger 2001-2017
</metadata>
<g transform="translate(0.000000,512.000000) scale(0.100000,-0.100000)"
fill="#000000" stroke="none">
<path d="M2205 5042 c-102 -43 -170 -113 -201 -207 -23 -67 -16 -186 16 -250
47 -96 145 -169 247 -183 l48 -7 54 -155 c50 -145 290 -858 305 -907 l7 -23
-584 0 -585 0 53 54 c37 39 69 87 109 168 71 144 288 711 280 732 -5 13 -22
16 -84 16 l-78 0 -79 -235 c-43 -129 -81 -235 -84 -235 -4 0 -9 10 -12 23 -4
12 -41 118 -84 234 l-78 213 -76 0 c-52 0 -80 -4 -88 -13 -8 -10 21 -92 120
-338 l130 -324 -23 -45 c-32 -62 -90 -117 -154 -147 -50 -23 -53 -26 -44 -49
22 -56 39 -53 -352 -56 l-363 -3 -65 -31 c-83 -39 -155 -111 -194 -194 l-31
-65 0 -1205 0 -1205 31 -65 c39 -83 111 -155 194 -194 l65 -31 1955 0 1955 0
65 31 c83 39 155 111 194 194 l31 65 0 1205 0 1205 -31 65 c-39 83 -111 155
-194 194 l-65 31 -615 5 -615 5 129 104 c71 57 188 153 260 213 72 60 138 115
146 121 8 7 94 74 190 149 96 75 209 164 251 197 l76 60 44 -22 c36 -18 61
-22 139 -22 111 0 167 21 235 90 69 68 90 124 90 235 0 111 -19 162 -89 233
-68 70 -124 92 -236 92 -112 0 -168 -22 -237 -92 -70 -72 -88 -121 -89 -241
l-1 -104 -65 -46 c-62 -44 -112 -82 -433 -323 -66 -50 -176 -131 -245 -180
-265 -190 -316 -226 -401 -286 -49 -35 -91 -63 -94 -63 -9 0 -37 64 -117 263
-44 111 -94 234 -111 272 -17 39 -67 167 -112 285 l-82 215 33 39 c63 73 79
120 79 226 0 79 -4 103 -23 143 -31 62 -96 127 -157 157 -66 33 -199 39 -260
12z m2040 -2047 c124 -32 218 -126 250 -250 23 -89 23 -1781 0 -1870 -21 -81
-74 -157 -138 -200 -105 -69 5 -65 -1797 -65 -1802 0 -1692 -4 -1797 65 -64
43 -117 119 -138 200 -23 89 -23 1781 0 1870 32 122 125 217 245 249 47 13
284 15 1685 15 1438 1 1638 -1 1690 -14z"/>
<path d="M1747 2422 c-15 -17 -17 -72 -17 -589 0 -660 -10 -603 106 -603 41 0
75 5 82 12 17 17 17 1169 0 1186 -7 7 -41 12 -83 12 -57 0 -75 -4 -88 -18z"/>
<path d="M2236 2418 c-3 -13 -22 -276 -43 -586 -27 -410 -34 -568 -27 -580 9
-14 27 -17 95 -17 l84 0 16 255 c10 140 20 332 24 427 l8 171 141 -421 142
-422 74 0 75 0 79 215 c43 118 114 314 157 435 l78 220 1 -78 c0 -137 41 -792
49 -800 4 -4 43 -7 86 -5 61 2 80 7 89 20 8 13 2 164 -22 560 -18 299 -36 562
-39 586 l-5 42 -108 0 c-74 0 -110 -4 -117 -12 -13 -18 -228 -606 -273 -748
l-36 -114 -43 134 c-49 154 -238 696 -252 723 -8 15 -25 17 -119 17 -106 0
-110 -1 -114 -22z"/>
<path d="M3617 2422 c-15 -17 -17 -72 -17 -589 0 -539 1 -571 18 -586 16 -15
55 -17 334 -17 366 0 348 -5 348 96 0 33 -5 65 -12 72 -9 9 -78 12 -250 12
l-238 0 0 180 0 180 213 0 c152 0 216 3 225 12 7 7 12 39 12 73 0 96 3 95
-243 95 l-207 0 0 155 0 155 223 0 c160 0 226 3 235 12 16 16 16 140 0 156 -9
9 -93 12 -318 12 -285 0 -308 -1 -323 -18z"/>
<path d="M727 2423 c-12 -11 -8 -138 5 -151 8 -8 60 -12 170 -12 l158 0 0
-498 c0 -579 -10 -532 107 -532 112 0 103 -45 103 533 l0 497 165 0 c152 0
165 1 175 19 14 27 13 124 -2 139 -9 9 -121 12 -443 12 -238 0 -435 -3 -438
-7z"/>
<path d="M435 4278 c-16 -6 -47 -23 -67 -40 -34 -26 -38 -27 -38 -9 0 45 -9
51 -75 51 -39 0 -66 -5 -72 -12 -5 -8 -6 -161 -3 -358 l5 -345 75 0 75 0 5
235 c5 258 10 277 69 319 43 31 83 36 124 16 65 -31 71 -58 77 -330 l5 -240
75 0 75 0 5 240 c5 227 6 242 28 276 42 69 133 87 179 36 46 -50 48 -62 53
-312 l5 -240 75 0 75 0 3 244 c2 193 -1 255 -13 296 -19 67 -50 112 -103 149
-87 61 -233 43 -312 -39 l-32 -33 -32 35 c-17 20 -49 44 -71 54 -44 21 -141
24 -190 7z"/>
</g>
</svg>
